<svg width="22" height="23" viewBox="0 0 22 23" fill="none" xmlns="http://www.w3.org/2000/svg">
<g clip-path="url(#clip0_44_1044)">
<mask id="mask0_44_1044" style="mask-type:alpha" maskUnits="userSpaceOnUse" x="-1" y="4" width="20" height="17">
<path d="M0.0195312 10.7891H2.39844V17.1172H0.699219C0.609087 17.1172 0.522646 17.1543 0.458913 17.2202C0.39518 17.2861 0.359375 17.3755 0.359375 17.4688C0.359375 17.562 0.39518 17.6515 0.458913 17.7174C0.522646 17.7833 0.609087 17.8204 0.699219 17.8204H17.0117C17.1019 17.8204 17.1883 17.7833 17.252 17.7174C17.3158 17.6515 17.3516 17.562 17.3516 17.4688C17.3516 17.3755 17.3158 17.2861 17.252 17.2202C17.1883 17.1543 17.1019 17.1172 17.0117 17.1172H15.3125V10.7891H17.6914C17.7649 10.7897 17.8366 10.765 17.895 10.7188C17.9535 10.6727 17.9954 10.6077 18.0143 10.5342C18.0349 10.461 18.032 10.3828 18.0059 10.3115C17.9799 10.2402 17.9321 10.1795 17.8698 10.1387L9.03389 4.51371C8.98026 4.47949 8.91848 4.46136 8.85547 4.46136C8.79245 4.46136 8.73068 4.47949 8.67705 4.51371L-0.158887 10.1387C-0.221172 10.1795 -0.268944 10.2402 -0.294997 10.3115C-0.32105 10.3828 -0.323971 10.461 -0.30332 10.5342C-0.28447 10.6077 -0.242517 10.6727 -0.184067 10.7188C-0.125618 10.765 -0.0539923 10.7897 0.0195312 10.7891ZM3.07812 10.7891H6.47656V17.1172H3.07812V10.7891ZM10.5547 10.7891V17.1172H7.15625V10.7891H10.5547ZM14.6328 17.1172H11.2344V10.7891H14.6328V17.1172ZM8.85547 5.22563L16.4935 10.086H1.21748L8.85547 5.22563ZM18.7109 20.2813C18.7109 20.3745 18.6751 20.464 18.6114 20.5299C18.5477 20.5958 18.4612 20.6329 18.3711 20.6329H-0.660156C-0.750288 20.6329 -0.836729 20.5958 -0.900462 20.5299C-0.964195 20.464 -1 20.3745 -1 20.2813C-1 20.188 -0.964195 20.0986 -0.900462 20.0327C-0.836729 19.9668 -0.750288 19.9297 -0.660156 19.9297H18.3711C18.4612 19.9297 18.5477 19.9668 18.6114 20.0327C18.6751 20.0986 18.7109 20.188 18.7109 20.2813Z" fill="#F0F0F0"/>
</mask>
<g mask="url(#mask0_44_1044)">
<path d="M0.0195312 10.7891H2.39844V17.1172H0.699219C0.609087 17.1172 0.522646 17.1543 0.458913 17.2202C0.39518 17.2861 0.359375 17.3755 0.359375 17.4688C0.359375 17.562 0.39518 17.6515 0.458913 17.7174C0.522646 17.7833 0.609087 17.8204 0.699219 17.8204H17.0117C17.1019 17.8204 17.1883 17.7833 17.252 17.7174C17.3158 17.6515 17.3516 17.562 17.3516 17.4688C17.3516 17.3755 17.3158 17.2861 17.252 17.2202C17.1883 17.1543 17.1019 17.1172 17.0117 17.1172H15.3125V10.7891H17.6914C17.7649 10.7897 17.8366 10.765 17.895 10.7188C17.9535 10.6727 17.9954 10.6077 18.0143 10.5342C18.0349 10.461 18.032 10.3828 18.0059 10.3115C17.9799 10.2402 17.9321 10.1795 17.8698 10.1387L9.03389 4.51371C8.98026 4.47949 8.91848 4.46136 8.85547 4.46136C8.79245 4.46136 8.73068 4.47949 8.67705 4.51371L-0.158887 10.1387C-0.221172 10.1795 -0.268944 10.2402 -0.294997 10.3115C-0.32105 10.3828 -0.323971 10.461 -0.30332 10.5342C-0.28447 10.6077 -0.242517 10.6727 -0.184067 10.7188C-0.125618 10.765 -0.0539923 10.7897 0.0195312 10.7891ZM3.07812 10.7891H6.47656V17.1172H3.07812V10.7891ZM10.5547 10.7891V17.1172H7.15625V10.7891H10.5547ZM14.6328 17.1172H11.2344V10.7891H14.6328V17.1172ZM8.85547 5.22563L16.4935 10.086H1.21748L8.85547 5.22563ZM18.7109 20.2813C18.7109 20.3745 18.6751 20.464 18.6114 20.5299C18.5477 20.5958 18.4612 20.6329 18.3711 20.6329H-0.660156C-0.750288 20.6329 -0.836729 20.5958 -0.900462 20.5299C-0.964195 20.464 -1 20.3745 -1 20.2813C-1 20.188 -0.964195 20.0986 -0.900462 20.0327C-0.836729 19.9668 -0.750288 19.9297 -0.660156 19.9297H18.3711C18.4612 19.9297 18.5477 19.9668 18.6114 20.0327C18.6751 20.0986 18.7109 20.188 18.7109 20.2813Z" fill="white"/>
</g>
</g>
<defs>
<clipPath id="clip0_44_1044">
<rect width="21.75" height="22.5" fill="white"/>
</clipPath>
</defs>
</svg>
